<svg width="150" height="60" viewBox="0 0 150 60" fill="none" xmlns="http://www.w3.org/2000/svg">
<rect width="150" height="60" rx="5" fill="#393E46"/>
<path d="M13.305 28.262V16.562C13.305 16.37 13.377 16.202 13.521 16.058C13.665 15.914 13.845 15.842 14.061 15.842H17.625C20.469 15.842 21.891 17.096 21.891 19.604C21.891 20.588 21.675 21.38 21.243 21.98C20.823 22.58 20.253 22.988 19.533 23.204L21.891 27.578C21.951 27.65 21.981 27.746 21.981 27.866C21.981 28.166 21.825 28.448 21.513 28.712C21.201 28.964 20.871 29.09 20.523 29.09C20.175 29.09 19.905 28.904 19.713 28.532L17.157 23.564H15.645V28.262C15.645 28.49 15.531 28.67 15.303 28.802C15.075 28.934 14.799 29 14.475 29C14.163 29 13.887 28.934 13.647 28.802C13.419 28.67 13.305 28.49 13.305 28.262ZM15.645 21.728H17.625C18.909 21.728 19.551 21.092 19.551 19.82C19.551 18.536 18.909 17.894 17.625 17.894H15.645V21.728ZM23.4296 16.814C23.4296 16.55 23.5976 16.322 23.9336 16.13C24.2816 15.938 24.6296 15.842 24.9776 15.842C25.3016 15.842 25.5416 15.998 25.6976 16.31L28.4336 21.512L31.1876 16.31C31.3556 15.998 31.5896 15.842 31.8896 15.842C32.2376 15.842 32.5796 15.938 32.9156 16.13C33.2636 16.322 33.4376 16.55 33.4376 16.814C33.4376 16.91 33.4196 16.988 33.3836 17.048L29.6756 23.492C29.6276 23.564 29.6036 23.642 29.6036 23.726V28.262C29.6036 28.49 29.4896 28.67 29.2616 28.802C29.0336 28.934 28.7576 29 28.4336 29C28.1216 29 27.8456 28.934 27.6056 28.802C27.3776 28.67 27.2636 28.49 27.2636 28.262V23.726C27.2636 23.618 27.2456 23.54 27.2096 23.492L23.4836 17.048C23.4476 16.952 23.4296 16.874 23.4296 16.814ZM35.211 24.986V19.964C35.211 18.536 35.589 17.492 36.345 16.832C37.113 16.172 38.139 15.842 39.423 15.842C40.707 15.842 41.733 16.172 42.501 16.832C43.269 17.492 43.653 18.536 43.653 19.964V24.986C43.653 26.414 43.269 27.458 42.501 28.118C41.733 28.778 40.707 29.108 39.423 29.108C38.139 29.108 37.113 28.778 36.345 28.118C35.589 27.458 35.211 26.414 35.211 24.986ZM37.551 24.986C37.551 26.366 38.175 27.056 39.423 27.056C40.683 27.056 41.313 26.366 41.313 24.986V19.964C41.313 18.584 40.683 17.894 39.423 17.894C38.175 17.894 37.551 18.584 37.551 19.964V24.986ZM45.4808 16.886C45.4808 16.61 45.5408 16.37 45.6608 16.166C45.7928 15.95 45.9788 15.842 46.2188 15.842H53.8328C54.0728 15.842 54.2528 15.95 54.3728 16.166C54.5048 16.37 54.5708 16.61 54.5708 16.886C54.5708 17.174 54.5048 17.426 54.3728 17.642C54.2408 17.846 54.0608 17.948 53.8328 17.948H51.2048V28.262C51.2048 28.49 51.0848 28.67 50.8448 28.802C50.6168 28.934 50.3468 29 50.0348 29C49.7108 29 49.4348 28.934 49.2068 28.802C48.9788 28.67 48.8648 28.49 48.8648 28.262V17.948H46.2188C45.9908 17.948 45.8108 17.846 45.6788 17.642C45.5468 17.438 45.4808 17.186 45.4808 16.886ZM54.7995 28.028C54.7995 28.004 54.8115 27.944 54.8355 27.848L58.3095 16.526C58.3815 16.274 58.5555 16.082 58.8315 15.95C59.1195 15.806 59.4435 15.734 59.8035 15.734C60.1635 15.734 60.4875 15.806 60.7755 15.95C61.0635 16.082 61.2435 16.274 61.3155 16.526L64.7895 27.848C64.8135 27.944 64.8255 28.004 64.8255 28.028C64.8255 28.292 64.6635 28.52 64.3395 28.712C64.0155 28.904 63.6855 29 63.3495 29C62.9055 29 62.6415 28.844 62.5575 28.532L61.8735 26.138H57.7515L57.0675 28.532C56.9835 28.844 56.7195 29 56.2755 29C55.9275 29 55.5915 28.91 55.2675 28.73C54.9555 28.538 54.7995 28.304 54.7995 28.028ZM58.2375 24.302H61.3695L59.8035 18.776L58.2375 24.302ZM70.8265 26.93C70.8265 26.654 70.9285 26.378 71.1325 26.102C71.3485 25.814 71.5885 25.67 71.8525 25.67C72.0085 25.67 72.1825 25.742 72.3745 25.886C72.5785 26.03 72.7705 26.192 72.9505 26.372C73.1425 26.54 73.4125 26.696 73.7605 26.84C74.1085 26.984 74.4925 27.056 74.9125 27.056C75.4885 27.056 75.9685 26.924 76.3525 26.66C76.7365 26.396 76.9285 26.006 76.9285 25.49C76.9285 25.13 76.8205 24.812 76.6045 24.536C76.4005 24.248 76.1245 24.014 75.7765 23.834C75.4405 23.642 75.0685 23.462 74.6605 23.294C74.2525 23.114 73.8385 22.916 73.4185 22.7C73.0105 22.484 72.6325 22.244 72.2845 21.98C71.9485 21.704 71.6725 21.344 71.4565 20.9C71.2525 20.444 71.1505 19.928 71.1505 19.352C71.1505 18.716 71.2765 18.158 71.5285 17.678C71.7925 17.186 72.1405 16.808 72.5725 16.544C73.0045 16.268 73.4665 16.07 73.9585 15.95C74.4505 15.818 74.9725 15.752 75.5245 15.752C75.8365 15.752 76.1665 15.776 76.5145 15.824C76.8625 15.86 77.2285 15.926 77.6125 16.022C78.0085 16.118 78.3265 16.268 78.5665 16.472C78.8185 16.676 78.9445 16.916 78.9445 17.192C78.9445 17.456 78.8605 17.732 78.6925 18.02C78.5245 18.296 78.2965 18.434 78.0085 18.434C77.9005 18.434 77.6065 18.32 77.1265 18.092C76.6465 17.864 76.1125 17.75 75.5245 17.75C74.8765 17.75 74.3725 17.876 74.0125 18.128C73.6645 18.368 73.4905 18.704 73.4905 19.136C73.4905 19.484 73.6345 19.79 73.9225 20.054C74.2105 20.306 74.5645 20.516 74.9845 20.684C75.4165 20.84 75.8785 21.044 76.3705 21.296C76.8745 21.536 77.3365 21.8 77.7565 22.088C78.1885 22.376 78.5485 22.796 78.8365 23.348C79.1245 23.888 79.2685 24.524 79.2685 25.256C79.2685 26.504 78.8725 27.47 78.0805 28.154C77.3005 28.826 76.2685 29.162 74.9845 29.162C73.8445 29.162 72.8665 28.928 72.0505 28.46C71.2345 27.992 70.8265 27.482 70.8265 26.93ZM81.7788 28.262V16.562C81.7788 16.322 81.8928 16.142 82.1208 16.022C82.3488 15.902 82.6248 15.842 82.9488 15.842C83.2728 15.842 83.5488 15.902 83.7768 16.022C84.0048 16.142 84.1188 16.322 84.1188 16.562V21.26H88.1688V16.562C88.1688 16.322 88.2828 16.142 88.5108 16.022C88.7388 15.902 89.0148 15.842 89.3388 15.842C89.6628 15.842 89.9388 15.902 90.1668 16.022C90.3948 16.142 90.5088 16.322 90.5088 16.562V28.262C90.5088 28.49 90.3888 28.67 90.1488 28.802C89.9208 28.934 89.6508 29 89.3388 29C89.0148 29 88.7388 28.934 88.5108 28.802C88.2828 28.67 88.1688 28.49 88.1688 28.262V23.096H84.1188V28.262C84.1188 28.49 83.9988 28.67 83.7588 28.802C83.5308 28.934 83.2608 29 82.9488 29C82.6248 29 82.3488 28.934 82.1208 28.802C81.8928 28.67 81.7788 28.49 81.7788 28.262ZM93.5773 28.262V16.562C93.5773 16.322 93.6913 16.142 93.9193 16.022C94.1473 15.902 94.4233 15.842 94.7473 15.842C95.0713 15.842 95.3473 15.902 95.5753 16.022C95.8033 16.142 95.9173 16.322 95.9173 16.562V28.262C95.9173 28.49 95.7973 28.67 95.5573 28.802C95.3293 28.934 95.0593 29 94.7473 29C94.4233 29 94.1473 28.934 93.9193 28.802C93.6913 28.67 93.5773 28.49 93.5773 28.262ZM98.9773 28.262V17.012C98.9773 16.616 99.0853 16.322 99.3013 16.13C99.5293 15.938 99.8113 15.842 100.147 15.842C100.591 15.842 100.933 15.92 101.173 16.076C101.413 16.232 101.677 16.568 101.965 17.084L104.179 21.116L106.393 17.084C106.681 16.568 106.945 16.232 107.185 16.076C107.437 15.92 107.785 15.842 108.229 15.842C108.565 15.842 108.841 15.938 109.057 16.13C109.285 16.322 109.399 16.616 109.399 17.012V28.262C109.399 28.49 109.279 28.67 109.039 28.802C108.811 28.934 108.541 29 108.229 29C107.905 29 107.629 28.934 107.401 28.802C107.173 28.67 107.059 28.49 107.059 28.262V20.522L104.953 24.266C104.785 24.578 104.521 24.734 104.161 24.734C103.813 24.734 103.555 24.578 103.387 24.266L101.317 20.378V28.262C101.317 28.49 101.197 28.67 100.957 28.802C100.729 28.934 100.459 29 100.147 29C99.8233 29 99.5473 28.934 99.3193 28.802C99.0913 28.67 98.9773 28.49 98.9773 28.262ZM112.463 28.262V16.562C112.463 16.322 112.577 16.142 112.805 16.022C113.033 15.902 113.309 15.842 113.633 15.842C113.957 15.842 114.233 15.902 114.461 16.022C114.689 16.142 114.803 16.322 114.803 16.562V28.262C114.803 28.49 114.683 28.67 114.443 28.802C114.215 28.934 113.945 29 113.633 29C113.309 29 113.033 28.934 112.805 28.802C112.577 28.67 112.463 28.49 112.463 28.262ZM117.035 28.352C117.035 28.088 117.119 27.818 117.287 27.542L122.633 17.894H118.079C117.851 17.894 117.671 17.798 117.539 17.606C117.419 17.402 117.359 17.156 117.359 16.868C117.359 16.592 117.419 16.352 117.539 16.148C117.659 15.944 117.839 15.842 118.079 15.842H124.919C125.387 15.842 125.621 16.052 125.621 16.472C125.621 16.736 125.531 17.018 125.351 17.318L120.023 26.948H125.207C125.423 26.948 125.597 27.056 125.729 27.272C125.873 27.476 125.945 27.71 125.945 27.974C125.945 28.238 125.873 28.478 125.729 28.694C125.597 28.898 125.423 29 125.207 29H117.737C117.269 29 117.035 28.784 117.035 28.352ZM128.114 24.986V16.562C128.114 16.322 128.228 16.142 128.456 16.022C128.684 15.902 128.96 15.842 129.284 15.842C129.608 15.842 129.884 15.902 130.112 16.022C130.34 16.142 130.454 16.322 130.454 16.562V24.986C130.454 26.366 131.114 27.056 132.434 27.056C133.754 27.056 134.414 26.366 134.414 24.986V16.562C134.414 16.322 134.528 16.142 134.756 16.022C134.984 15.902 135.26 15.842 135.584 15.842C135.908 15.842 136.184 15.902 136.412 16.022C136.64 16.142 136.754 16.322 136.754 16.562V24.986C136.754 26.402 136.358 27.446 135.566 28.118C134.786 28.778 133.742 29.108 132.434 29.108C131.126 29.108 130.076 28.778 129.284 28.118C128.504 27.458 128.114 26.414 128.114 24.986Z" fill="white"/>
<path d="M21.14 39.34L20.16 38.71C19.89 38.78 19.57 38.79 19.37 38.79H14.75C14.42 38.79 13.85 38.74 13.55 38.71V40.12C13.81 40.1 14.29 40.08 14.74 40.08H19.4C19.27 40.93 18.89 42.07 18.23 42.9C17.42 43.91 16.29 44.78 14.31 45.25L15.4 46.44C17.18 45.87 18.51 44.88 19.42 43.68C20.25 42.57 20.69 41.02 20.92 40.04C20.97 39.83 21.05 39.54 21.14 39.34ZM24.01 38.91C24.03 39.19 24.03 39.6 24.03 39.88V44.77C24.03 45.25 24 46.12 24 46.17H25.38C25.38 46.14 25.38 45.91 25.37 45.63H30.19C30.19 45.92 30.18 46.15 30.18 46.17H31.56C31.56 46.13 31.54 45.17 31.54 44.78V39.88C31.54 39.58 31.54 39.21 31.56 38.91C31.2 38.93 30.82 38.93 30.57 38.93H25.07C24.8 38.93 24.42 38.92 24.01 38.91ZM25.37 40.2H30.2V44.35H25.37V40.2ZM35.66 38.4L34.72 39.4C35.45 39.91 36.7 41 37.22 41.56L38.24 40.52C37.66 39.91 36.36 38.87 35.66 38.4ZM34.41 45.06L35.25 46.38C36.66 46.14 37.95 45.58 38.96 44.97C40.57 44 41.9 42.62 42.66 41.27L41.88 39.86C41.25 41.21 39.95 42.74 38.24 43.75C37.27 44.33 35.97 44.84 34.41 45.06ZM46.89 45.04C46.89 45.44 46.85 46.04 46.79 46.44H48.35C48.31 46.03 48.26 45.33 48.26 45.04V42.21C49.34 42.58 50.84 43.16 51.87 43.7L52.44 42.32C51.52 41.87 49.6 41.16 48.26 40.77V39.29C48.26 38.88 48.31 38.44 48.35 38.09H46.79C46.86 38.44 46.89 38.94 46.89 39.29V45.04ZM55.64 39.02V40.39C55.89 40.37 56.32 40.35 56.59 40.35H58.52V44.43H55.98C55.67 44.43 55.31 44.4 55 44.35V45.8C55.33 45.76 55.68 45.75 55.98 45.75H62.57C62.8 45.75 63.22 45.76 63.51 45.8V44.35C63.25 44.39 62.93 44.43 62.57 44.43H59.92V40.35H62.03C62.32 40.35 62.67 40.37 62.97 40.39V39.02C62.68 39.05 62.33 39.08 62.03 39.08H56.59C56.31 39.08 55.9 39.05 55.64 39.02ZM67.16 38.4L66.22 39.4C66.95 39.91 68.2 41 68.72 41.56L69.74 40.52C69.16 39.91 67.86 38.87 67.16 38.4ZM65.91 45.06L66.75 46.38C68.16 46.14 69.45 45.58 70.46 44.97C72.07 44 73.4 42.62 74.16 41.27L73.38 39.86C72.75 41.21 71.45 42.74 69.74 43.75C68.77 44.33 67.47 44.84 65.91 45.06ZM82.07 38.56L81.23 38.91C81.6 39.43 81.82 39.83 82.11 40.46L82.98 40.07C82.75 39.62 82.35 38.98 82.07 38.56ZM83.38 38.01L82.55 38.4C82.92 38.9 83.16 39.27 83.48 39.9L84.32 39.49C84.09 39.04 83.67 38.41 83.38 38.01ZM78.08 45.19C78.08 45.58 78.04 46.19 77.98 46.58H79.55C79.5 46.17 79.45 45.47 79.45 45.19V42.36C80.53 42.72 82.03 43.3 83.07 43.85L83.63 42.46C82.71 42.01 80.78 41.3 79.45 40.9V39.44C79.45 39.02 79.5 38.58 79.54 38.23H77.98C78.05 38.59 78.08 39.08 78.08 39.44V45.19ZM87.14 39.02V40.39C87.39 40.37 87.82 40.35 88.09 40.35H90.02V44.43H87.48C87.17 44.43 86.81 44.4 86.5 44.35V45.8C86.83 45.76 87.18 45.75 87.48 45.75H94.07C94.3 45.75 94.72 45.76 95.01 45.8V44.35C94.75 44.39 94.43 44.43 94.07 44.43H91.42V40.35H93.53C93.82 40.35 94.17 40.37 94.47 40.39V39.02C94.18 39.05 93.83 39.08 93.53 39.08H88.09C87.81 39.08 87.4 39.05 87.14 39.02ZM98.66 38.4L97.72 39.4C98.45 39.91 99.7 41 100.22 41.56L101.24 40.52C100.66 39.91 99.36 38.87 98.66 38.4ZM97.41 45.06L98.25 46.38C99.66 46.14 100.95 45.58 101.96 44.97C103.57 44 104.9 42.62 105.66 41.27L104.88 39.86C104.25 41.21 102.95 42.74 101.24 43.75C100.27 44.33 98.97 44.84 97.41 45.06ZM114.05 38.32L113.21 38.67C113.57 39.18 113.8 39.61 114.09 40.24L114.96 39.87C114.73 39.41 114.33 38.74 114.05 38.32ZM115.42 37.84L114.57 38.19C114.94 38.69 115.19 39.08 115.51 39.71L116.36 39.33C116.12 38.89 115.73 38.24 115.42 37.84ZM109.7 38.13L108.98 39.23C109.64 39.6 110.68 40.27 111.24 40.66L111.98 39.56C111.46 39.19 110.36 38.49 109.7 38.13ZM107.85 45.23L108.6 46.54C109.48 46.38 110.92 45.88 111.94 45.31C113.57 44.36 114.99 43.1 115.91 41.71L115.14 40.35C114.35 41.78 112.95 43.15 111.25 44.1C110.17 44.7 108.97 45.04 107.85 45.23ZM108.16 40.41L107.44 41.51C108.11 41.87 109.15 42.54 109.72 42.94L110.45 41.82C109.94 41.46 108.84 40.77 108.16 40.41ZM118.95 39.21V40.66C119.29 40.64 119.75 40.62 120.13 40.62H124.26C124.61 40.62 125.08 40.65 125.37 40.66V39.21C125.09 39.24 124.66 39.27 124.26 39.27H120.12C119.78 39.27 119.31 39.25 118.95 39.21ZM118.11 44.1V45.63C118.48 45.6 118.97 45.57 119.36 45.57H125.1C125.4 45.57 125.85 45.59 126.2 45.63V44.1C125.86 44.14 125.44 44.16 125.1 44.16H119.36C118.97 44.16 118.5 44.13 118.11 44.1ZM137.3 39.23L136.51 38.49C136.32 38.55 135.77 38.58 135.49 38.58H130.1C129.68 38.58 129.26 38.54 128.88 38.48V39.87C129.35 39.83 129.68 39.8 130.1 39.8H135.31C135.05 40.29 134.27 41.17 133.47 41.66L134.51 42.49C135.49 41.79 136.44 40.53 136.91 39.75C137 39.6 137.19 39.36 137.3 39.23ZM133.22 40.58H131.77C131.82 40.9 131.84 41.17 131.84 41.48C131.84 43.12 131.6 44.18 130.33 45.06C129.96 45.33 129.6 45.5 129.28 45.61L130.45 46.56C133.17 45.1 133.22 43.06 133.22 40.58Z" fill="white"/>
</svg>
